Coordinates
version=1
nRows=8
nColumns=40
inDegrees=yes

Units are S.I. units (second, meters, Newtons, ...)
Angles are in degrees.

endheader
time	pelvis_tilt	pelvis_list	pelvis_rotation	pelvis_tx	pelvis_ty	pelvis_tz	hip_flexion_r	hip_adduction_r	hip_rotation_r	knee_angle_r	knee_angle_r_beta	ankle_angle_r	subtalar_angle_r	mtp_angle_r	hip_flexion_l	hip_adduction_l	hip_rotation_l	knee_angle_l	knee_angle_l_beta	ankle_angle_l	subtalar_angle_l	mtp_angle_l	lumbar_extension	lumbar_bending	lumbar_rotation	arm_flex_r	arm_add_r	arm_rot_r	elbow_flex_r	pro_sup_r	wrist_flex_r	wrist_dev_r	arm_flex_l	arm_add_l	arm_rot_l	elbow_flex_l	pro_sup_l	wrist_flex_l	wrist_dev_l
      0.21000000	    -10.60488539	      1.45984450	     -6.32176674	     -1.06014235	      0.88334067	     -0.37042184	    -10.21131043	     -3.26442943	      0.15513609	    -44.04282949	     -0.76869239	    -29.46704538	    -13.21849414	     21.45376860	     53.84891145	      4.04886370	     14.92282716	    -31.13727408	     -0.54344795	    -20.48064889	     17.76884436	     23.73770456	     -6.47146280	     -4.52948682	     16.77509561	     -5.16531134	    -15.74313364	     16.18035698	    119.31876614	     89.95437384	      0.00000000	      0.00000000	    -35.49841416	     30.45603181	     12.59168414	     84.63209610	     89.95437384	      0.00000000	      0.00000000
      0.22000000	     -9.95714550	      0.53343278	     -5.40818648	     -1.01181556	      0.88112306	     -0.37182558	     -9.12498200	     -2.34227763	     -1.20800374	    -48.73270342	     -0.85054613	    -28.83132747	    -14.96115953	     21.48544994	     51.94876389	      4.17481270	     15.42392169	    -31.41270303	     -0.54825509	    -21.08067289	     17.22981129	     23.17161928	     -6.79448394	     -3.89127192	     15.14798214	     -7.52681533	    -16.20168488	     15.57092802	    116.54300509	     89.95437384	      0.00000000	      0.00000000	    -33.37191234	     29.77149022	     11.39391175	     84.47308600	     89.95437384	      0.00000000	      0.00000000
      0.23000000	     -9.23021188	     -0.33723014	     -4.48568812	     -0.96397655	      0.87809185	     -0.37337809	     -7.68563213	     -1.53944589	     -2.46756406	    -53.67364978	     -0.93678191	    -27.67066029	    -16.45788928	     21.56892930	     50.01836587	      4.22040013	     15.31745663	    -32.75596714	     -0.57169948	    -21.59076670	     16.97173270	     22.40542103	     -7.22436130	     -3.32199123	     13.40317380	     -9.92763423	    -16.75514642	     14.76122632	    113.58015576	     89.95437384	      0.00000000	      0.00000000	    -30.97410383	     28.98445848	     10.21504020	     84.42642748	     89.95437384	      0.00000000	      0.00000000
      0.24000000	     -8.39558062	     -1.11412286	     -3.40121519	     -0.91691431	      0.87447591	     -0.37501953	     -5.97507120	     -0.88740049	     -3.85429786	    -58.83964335	     -1.02694551	    -25.41034729	    -17.43508189	     21.82935146	     47.94512546	      3.77194730	     13.69147686	    -34.59874204	     -0.60386197	    -21.98035321	     16.93492863	     21.92562068	     -7.87937387	     -2.87755059	     11.26735885	    -12.14786563	    -17.30008460	     13.96505267	    110.34913067	     89.95437384	      0.00000000	      0.00000000	    -28.39716374	     28.09256226	      9.25213587	     84.49795534	     89.95437384	      0.00000000	      0.00000000
      0.25000000	     -7.39059059	     -1.44670902	     -2.16555677	     -0.87046296	      0.87030040	     -0.37729053	     -4.05394402	     -0.83966783	     -5.27443219	    -64.22857257	     -1.12100007	    -22.74680727	    -18.11192484	     21.65535418	     45.31163913	      2.37248407	     10.80412695	    -36.55036974	     -0.63792429	    -14.72025672	     15.97713215	     20.75745583	     -8.81233260	     -2.90811291	      8.83346890	    -14.22519453	    -17.84333260	     13.05445320	    106.92010932	     89.95437384	      0.00000000	      0.00000000	    -25.58568535	     27.17310713	      8.43740120	     84.82548219	     89.95437384	      0.00000000	      0.00000000
      0.26000000	     -6.37235567	     -1.46516596	     -0.90507682	     -0.82480644	      0.86527952	     -0.37980746	     -1.62153860	     -1.24211041	     -6.53678994	    -69.92270330	     -1.22038139	    -19.96067523	    -18.50363453	     21.60342214	     42.80372659	      0.85975525	      8.54547896	    -40.05972355	     -0.69917407	     -6.91079222	     15.61324674	     19.16263050	     -9.91816971	     -3.24514394	      6.21883614	    -16.12216160	    -18.36200270	     12.00602002	    103.42281048	     89.95437384	      0.00000000	      0.00000000	    -22.55046523	     26.24118875	      7.78752460	     85.25191834	     89.95437384	      0.00000000	      0.00000000
      0.27000000	     -5.37746911	     -1.20543082	      0.18467610	     -0.78002345	      0.85964423	     -0.38217571	      1.39204511	     -2.01008353	     -7.37890687	    -75.87559116	     -1.32427889	    -16.97871412	    -18.70966216	     22.19412653	     40.33335360	     -0.58569518	      7.23768148	    -44.33263697	     -0.77375048	      0.66554484	     15.48464399	     17.43615248	    -11.14160017	     -3.87016900	      3.65583523	    -17.91669496	    -18.87325201	     10.85893263	     99.85215145	     89.95437384	      0.00000000	      0.00000000	    -19.26336421	     25.39685755	      7.09735953	     85.86523795	     89.95437384	      0.00000000	      0.00000000
      0.28000000	     -4.63493066	     -0.86556719	      1.45453131	     -0.73674593	      0.85353346	     -0.38451421	      5.24049700	     -2.72169626	     -7.89144181	    -81.79938726	     -1.42766863	    -13.72525141	    -18.89707346	     22.51064215	     37.65301599	     -2.05830334	      6.13762563	    -47.25672498	     -0.82478544	      7.12354054	     15.53635052	     15.86977061	    -12.35365513	     -4.53314681	      0.84079956	    -19.48412500	    -19.38129539	      9.61933134	     96.33109232	     89.95437384	      0.00000000	      0.00000000	    -15.63343161	     24.66137303	      6.33463691	     86.65239846	     89.95437384	      0.00000000	      0.00000000
